<?xml version="1.0" standalone="no"?>
<!DOCTYPE svg PUBLIC "-//W3C//DTD SVG 20010904//EN"
 "http://www.w3.org/TR/2001/REC-SVG-20010904/DTD/svg10.dtd">
<svg version="1.0" xmlns="http://www.w3.org/2000/svg"
 width="960.000000pt" height="960.000000pt" viewBox="0 0 960.000000 960.000000"
 preserveAspectRatio="xMidYMid meet">
<metadata>
Created by potrace 1.14, written by Peter Selinger 2001-2017
</metadata>
<g transform="translate(0.000000,960.000000) scale(0.100000,-0.100000)"
fill="#000000" stroke="none">
<path d="M1364 9578 c1 -13 -1 -32 -5 -43 -4 -11 -10 -43 -14 -70 -4 -28 -9
-59 -11 -70 -2 -11 -6 -38 -9 -60 -3 -22 -10 -60 -15 -85 -9 -46 -22 -119 -26
-155 -1 -11 -5 -33 -8 -50 -8 -41 -17 -94 -22 -130 -6 -42 -12 -77 -17 -100
-3 -11 -8 -40 -11 -65 -3 -25 -8 -56 -11 -70 -10 -47 -15 -78 -20 -116 -3 -22
-7 -50 -10 -64 -3 -14 -8 -41 -11 -60 -7 -46 -13 -80 -18 -105 -2 -11 -7 -40
-11 -65 -4 -25 -9 -52 -10 -61 -5 -24 -14 -83 -20 -126 -3 -21 -10 -60 -16
-88 -5 -27 -11 -63 -13 -80 -7 -45 -17 -107 -22 -135 -3 -14 -7 -36 -9 -50 -1
-14 -6 -40 -9 -57 -3 -18 -8 -48 -11 -65 -3 -18 -8 -44 -10 -58 -13 -62 -15
-77 -20 -115 -2 -22 -6 -49 -8 -60 -3 -11 -8 -40 -12 -65 -4 -25 -9 -54 -11
-65 -2 -11 -6 -33 -9 -50 -2 -16 -7 -43 -10 -60 -5 -31 -22 -130 -29 -175 -3
-14 -5 -27 -6 -30 -2 -3 -2 -8 -1 -12 0 -4 -8 -53 -18 -110 -27 -144 -32 -179
-36 -213 -2 -16 -6 -43 -9 -60 -6 -32 -15 -83 -22 -125 -8 -48 -14 -85 -19
-110 -3 -14 -7 -41 -10 -60 -3 -19 -6 -44 -9 -55 -7 -37 -20 -110 -22 -130 -1
-11 -5 -33 -8 -50 -3 -16 -8 -48 -11 -70 -3 -22 -8 -53 -12 -70 -4 -16 -7 -32
-8 -35 -1 -3 -5 -32 -10 -65 -5 -33 -9 -62 -10 -65 -1 -6 -17 -99 -20 -120 -2
-8 -6 -37 -10 -65 -4 -27 -9 -52 -10 -55 -4 -6 -15 -78 -20 -125 -2 -16 -5
-31 -6 -32 -3 -5 -5 -15 -13 -73 -4 -30 -9 -62 -11 -70 -2 -8 -6 -33 -10 -55
-3 -22 -8 -51 -10 -65 -3 -14 -7 -38 -10 -55 -3 -16 -7 -40 -9 -52 -3 -11 -8
-43 -12 -70 -3 -26 -8 -57 -10 -68 -3 -11 -7 -36 -10 -55 -3 -19 -12 -71 -19
-115 -8 -44 -18 -98 -21 -120 -7 -47 -11 -67 -19 -115 -21 -119 -27 -155 -30
-181 -2 -17 -6 -42 -10 -57 -3 -15 -8 -43 -11 -62 -3 -19 -7 -44 -9 -55 -1
-11 -6 -38 -9 -60 -4 -23 -8 -50 -10 -60 -2 -11 -7 -40 -11 -65 -8 -48 -12
-70 -20 -110 -2 -14 -7 -43 -10 -65 -3 -23 -8 -52 -11 -65 -10 -48 -20 -126
-31 -245 -15 -162 -9 -895 7 -895 3 0 6 -15 7 -32 1 -68 46 -328 73 -428 7
-25 14 -56 17 -69 2 -14 6 -28 9 -33 3 -5 7 -20 10 -34 6 -35 74 -233 90 -266
8 -15 14 -30 14 -33 0 -5 9 -27 43 -105 5 -14 11 -27 12 -30 2 -10 106 -206
130 -248 131 -224 347 -482 515 -618 19 -16 42 -37 51 -46 9 -10 21 -18 26
-18 6 0 17 -7 24 -16 26 -32 235 -161 354 -220 186 -92 418 -172 605 -208 14
-3 36 -8 50 -11 14 -3 41 -8 60 -10 19 -2 52 -6 73 -9 164 -26 232 -30 492
-30 232 0 342 5 455 20 25 4 56 8 70 9 14 2 25 4 25 5 0 0 20 3 44 6 35 3 200
38 326 68 22 5 161 48 175 53 8 4 18 7 23 8 4 2 9 4 12 5 3 1 8 3 13 5 14 4
47 16 97 36 28 11 55 22 60 23 49 13 375 176 375 188 0 4 5 8 12 8 13 0 110
60 120 75 4 5 8 6 8 2 0 -5 18 5 39 22 21 17 44 31 50 31 6 0 11 5 11 10 0 6
8 14 18 17 9 4 28 17 42 30 14 13 30 23 37 23 6 0 13 4 15 9 2 5 32 32 68 60
130 104 189 160 426 403 23 24 25 20 13 -30 -5 -23 -11 -59 -14 -80 -3 -20
-12 -71 -20 -112 -14 -67 -20 -101 -40 -205 -3 -16 -8 -43 -11 -60 -3 -16 -9
-52 -14 -80 -5 -27 -12 -66 -15 -85 -3 -19 -10 -51 -15 -70 -5 -19 -11 -53
-15 -75 -11 -71 -16 -110 -18 -130 -2 -20 7 -20 1136 -20 751 0 1141 3 1145
10 4 5 7 15 8 20 1 6 9 50 17 100 9 50 19 106 22 125 3 19 8 44 10 55 1 11 8
48 15 83 6 35 13 75 15 90 2 15 6 38 9 52 3 14 8 41 10 60 3 19 7 45 10 56 2
12 7 39 10 60 4 22 11 65 17 96 5 32 12 69 15 83 2 14 7 37 10 53 6 28 9 51
18 112 3 19 8 47 10 63 6 29 22 120 31 177 3 19 9 44 12 55 3 11 8 36 10 55 5
51 11 85 13 85 1 0 4 14 5 30 3 28 6 43 20 115 13 64 15 78 19 115 3 22 7 47
10 55 5 15 16 74 21 120 2 14 4 25 5 25 2 0 3 8 13 77 3 21 11 66 17 100 7 35
13 72 15 83 1 11 5 31 8 45 4 14 9 41 12 60 2 19 7 46 9 60 3 14 7 41 10 60 3
19 14 84 25 145 11 60 18 111 16 114 -3 2 0 10 6 18 6 7 9 13 7 13 -3 0 -1 19
4 43 5 23 11 56 13 72 4 35 12 80 20 115 3 14 8 45 11 70 3 25 8 47 9 50 2 3
6 26 9 50 4 25 9 59 13 75 3 17 7 39 9 50 2 11 6 31 9 45 3 14 7 43 9 65 2 22
6 47 9 55 4 8 8 31 11 50 6 33 8 50 22 130 3 19 8 46 10 60 4 24 14 79 20 110
2 8 5 31 8 50 3 19 7 44 9 55 6 26 15 81 23 129 3 21 8 48 10 60 2 11 7 36 10
55 3 18 8 43 10 55 2 11 7 37 10 56 3 19 12 71 19 115 8 44 17 96 20 115 7 44
13 78 20 110 2 13 7 40 10 60 3 20 8 47 11 60 3 14 7 42 8 62 2 20 6 40 9 45
3 4 8 30 11 57 4 27 13 83 21 125 8 42 16 94 20 116 3 22 8 48 11 57 3 9 7 32
9 50 2 18 10 70 19 115 14 79 26 146 32 188 1 11 3 20 4 20 2 0 8 32 15 85 3
24 10 65 15 90 5 25 12 61 15 80 4 19 8 46 11 60 2 14 6 43 9 65 2 22 5 40 5
40 3 0 20 85 26 125 2 19 8 58 14 85 5 28 12 68 16 90 12 80 14 90 18 110 3
11 5 20 6 20 1 0 3 11 5 25 3 31 14 97 20 130 3 14 7 39 10 55 2 17 7 42 10
58 7 36 13 70 22 126 7 48 9 56 13 69 1 4 2 10 1 14 0 3 6 39 14 80 20 104 23
126 31 177 4 25 8 55 10 66 2 11 7 36 10 55 3 19 12 67 19 105 8 39 16 88 20
110 3 23 8 52 11 65 3 14 7 36 9 50 5 33 13 81 26 155 6 33 13 74 15 90 3 17
9 53 14 80 5 28 12 65 15 83 6 40 13 80 20 112 2 13 7 40 10 60 3 20 8 47 10
60 3 14 8 41 11 60 3 19 7 42 9 50 2 8 7 33 10 55 3 23 8 52 10 65 3 14 8 41
11 60 5 34 32 183 40 225 2 11 6 38 9 60 3 22 7 47 10 55 2 8 7 32 10 53 13
94 16 110 20 117 3 4 7 27 10 51 3 24 7 55 10 69 3 13 7 42 11 65 7 47 12 70
14 70 1 0 3 9 4 20 7 48 16 112 20 133 l5 22 -1238 0 -1238 0 -7 -47 c-4 -27
-9 -55 -11 -63 -6 -27 -16 -84 -31 -175 -3 -16 -12 -68 -20 -113 -9 -46 -17
-96 -19 -110 -2 -15 -4 -27 -5 -27 -1 0 -3 -11 -5 -25 -1 -14 -5 -38 -8 -55
-4 -16 -13 -70 -22 -120 -9 -49 -18 -99 -20 -110 -2 -11 -6 -34 -9 -52 -3 -17
-10 -60 -16 -95 -7 -35 -13 -72 -15 -83 -2 -17 -16 -94 -29 -161 -2 -12 -7
-39 -10 -60 -3 -22 -8 -50 -11 -64 -12 -62 -24 -134 -30 -175 -2 -16 -9 -55
-15 -85 -6 -30 -13 -68 -15 -85 -3 -16 -7 -41 -10 -55 -2 -13 -7 -40 -10 -60
-3 -20 -8 -47 -11 -60 -8 -36 -15 -77 -18 -102 -1 -13 -5 -34 -9 -48 -7 -26
-14 -68 -22 -130 -3 -19 -7 -46 -10 -60 -3 -14 -7 -36 -10 -50 -2 -14 -7 -38
-10 -55 -3 -16 -8 -43 -10 -60 -10 -62 -15 -91 -26 -140 -5 -27 -12 -66 -14
-85 -2 -19 -7 -46 -10 -60 -3 -14 -8 -41 -11 -60 -3 -19 -7 -45 -10 -57 -6
-31 -13 -71 -20 -113 -12 -68 -15 -86 -25 -143 -6 -32 -12 -70 -14 -85 -2 -15
-6 -37 -9 -48 -2 -12 -7 -37 -10 -55 -3 -19 -8 -45 -11 -59 -3 -14 -8 -45 -11
-70 -3 -25 -8 -47 -9 -50 -2 -3 -6 -26 -10 -50 -9 -67 -15 -101 -25 -145 -5
-22 -11 -58 -14 -80 -4 -23 -9 -52 -11 -65 -14 -67 -17 -88 -20 -122 -2 -20
-6 -41 -9 -46 -3 -4 -8 -31 -12 -58 -3 -27 -7 -51 -9 -54 -2 -3 -6 -30 -10
-60 -4 -30 -8 -57 -10 -60 -2 -3 -6 -24 -9 -46 -4 -22 -9 -51 -12 -64 -3 -14
-7 -41 -10 -60 -2 -19 -7 -46 -10 -60 -9 -48 -25 -135 -30 -170 -2 -19 -7 -46
-9 -60 -3 -14 -8 -40 -11 -59 -3 -18 -7 -43 -10 -55 -2 -11 -15 -84 -29 -161
-34 -194 -33 -190 -35 -190 -1 0 -3 -13 -5 -30 -2 -16 -6 -46 -10 -65 -21
-114 -38 -209 -40 -235 -2 -16 -6 -41 -9 -55 -7 -30 -13 -61 -22 -115 -3 -22
-7 -44 -9 -50 -4 -18 -15 -79 -20 -110 -2 -16 -7 -41 -9 -55 -3 -14 -8 -43
-11 -65 -3 -22 -7 -47 -10 -55 -2 -8 -7 -31 -9 -50 -3 -19 -7 -46 -10 -60 -3
-14 -7 -41 -10 -60 -2 -19 -7 -42 -10 -50 -3 -8 -8 -31 -10 -50 -3 -19 -7 -46
-9 -60 -3 -14 -15 -81 -27 -150 -21 -121 -23 -137 -34 -190 -3 -14 -7 -42 -10
-63 -3 -21 -11 -46 -18 -55 -124 -157 -336 -355 -512 -480 -64 -46 -196 -126
-208 -127 -3 0 -10 -4 -14 -8 -20 -20 -303 -141 -353 -151 -9 -2 -23 -6 -31
-9 -15 -6 -109 -33 -122 -36 -5 0 -9 -2 -10 -2 -2 -1 -14 -2 -28 -3 -14 -1
-29 -4 -35 -8 -5 -3 -35 -9 -65 -13 -30 -4 -57 -8 -60 -10 -30 -19 -505 -27
-610 -12 -69 11 -171 35 -215 51 -150 56 -248 119 -341 219 -87 94 -180 268
-200 372 -2 11 -8 40 -14 65 -18 69 -28 135 -36 235 -4 54 -4 312 1 355 2 19
6 62 9 95 3 33 9 71 12 85 3 14 7 34 9 45 2 11 6 34 9 50 3 17 9 53 12 80 4
28 8 54 11 58 3 5 7 27 9 50 2 23 6 53 9 67 3 14 7 39 10 55 3 17 8 42 11 57
3 15 7 39 9 55 4 27 8 53 20 123 4 19 8 44 9 55 2 11 6 40 11 65 9 52 8 48 29
160 8 47 18 103 20 125 2 22 12 81 21 130 9 50 18 101 20 115 2 14 7 43 11 65
4 22 7 48 8 58 0 9 4 17 9 17 4 0 6 4 3 9 -3 5 -1 33 4 62 6 30 13 70 16 89 2
19 7 46 10 60 3 13 7 38 10 55 2 16 6 41 9 55 2 13 7 42 10 65 7 48 13 81 20
115 3 14 7 41 10 60 3 19 7 46 10 60 3 14 7 39 9 57 3 18 7 40 10 50 2 10 7
38 10 63 3 25 8 56 11 70 3 14 7 39 10 55 3 17 7 41 10 55 2 14 7 41 9 60 3
19 8 46 11 60 6 27 34 197 40 245 3 17 7 41 10 55 3 14 8 41 11 60 3 19 7 46
10 60 2 14 7 41 10 60 3 19 7 46 10 60 3 14 7 37 9 52 3 24 18 109 31 178 2
14 6 41 9 60 3 19 8 46 11 60 3 14 7 39 9 55 2 17 6 44 10 60 3 17 8 46 11 65
2 19 8 58 14 85 5 28 11 64 14 80 2 17 7 41 10 55 3 14 8 43 10 65 3 22 5 40
6 40 2 0 2 4 25 140 8 50 17 101 19 115 9 51 18 106 22 135 3 17 7 41 9 55 2
14 4 25 5 25 1 0 3 14 5 30 2 17 6 44 9 60 7 33 44 252 52 300 2 17 7 42 10
57 3 15 7 39 9 55 3 15 16 93 29 172 14 79 23 148 20 153 -3 4 -1 8 3 8 5 0 9
8 9 18 1 16 10 73 18 119 3 11 7 37 10 57 3 20 9 52 12 72 3 20 8 46 10 58 3
11 7 39 10 61 3 22 7 48 10 58 3 10 8 35 10 55 2 20 9 60 14 88 6 28 12 67 14
86 2 20 6 40 9 45 3 4 8 36 12 71 l7 62 -1230 0 -1229 0 1 -22z"/>
</g>
</svg>
